<svg width="288" height="64" viewBox="0 0 288 64" fill="none" xmlns="http://www.w3.org/2000/svg">
<path d="M5.536 18.8053C4.61867 18.8053 3.81333 18.6293 3.12 18.2773C2.43733 17.9146 1.904 17.3706 1.52 16.6453C1.14667 15.9199 0.96 15.0026 0.96 13.8933V12.1333C0.96 11.0239 1.14667 10.1066 1.52 9.38128C1.904 8.65595 2.43733 8.11728 3.12 7.76528C3.81333 7.40261 4.61867 7.22128 5.536 7.22128H5.744C6.672 7.22128 7.47733 7.40261 8.16 7.76528C8.84267 8.11728 9.37067 8.65595 9.744 9.38128C10.1173 10.1066 10.304 11.0239 10.304 12.1333V13.8933C10.304 15.0026 10.1173 15.9199 9.744 16.6453C9.37067 17.3706 8.84267 17.9146 8.16 18.2773C7.47733 18.6293 6.672 18.8053 5.744 18.8053H5.536ZM5.568 17.7653H5.728C6.816 17.7653 7.664 17.4559 8.272 16.8373C8.89067 16.2079 9.2 15.2266 9.2 13.8933V12.1333C9.2 10.7999 8.89067 9.82395 8.272 9.20528C7.664 8.57595 6.816 8.26128 5.728 8.26128H5.568C4.46933 8.26128 3.61067 8.57595 2.992 9.20528C2.384 9.82395 2.08 10.7999 2.08 12.1333V13.8933C2.08 15.2266 2.384 16.2079 2.992 16.8373C3.61067 17.4559 4.46933 17.7653 5.568 17.7653ZM5.728 16.4853C5.00267 16.4853 4.42667 16.2719 4 15.8453C3.584 15.4186 3.376 14.7893 3.376 13.9573V12.1013C3.376 11.2479 3.58933 10.6026 4.016 10.1653C4.45333 9.72795 5.01333 9.50928 5.696 9.50928C6.432 9.50928 6.992 9.72795 7.376 10.1653C7.76 10.5919 7.952 11.1466 7.952 11.8293V12.1333H6.848V11.7333C6.848 11.3919 6.76267 11.1039 6.592 10.8693C6.42133 10.6346 6.128 10.5173 5.712 10.5173C5.36 10.5173 5.06667 10.6346 4.832 10.8693C4.59733 11.0933 4.48 11.4239 4.48 11.8613V14.1973C4.48 14.6133 4.60267 14.9279 4.848 15.1413C5.09333 15.3546 5.38133 15.4613 5.712 15.4613C6.07467 15.4613 6.352 15.3599 6.544 15.1573C6.74667 14.9546 6.848 14.6399 6.848 14.2133V13.8773H7.952V14.1813C7.952 14.8639 7.76533 15.4186 7.392 15.8453C7.01867 16.2719 6.464 16.4853 5.728 16.4853ZM16.223 18.6133V17.4453C16.223 16.6453 16.3617 16.0053 16.639 15.5253C16.927 15.0453 17.3217 14.6613 17.823 14.3733C18.335 14.0746 18.943 13.8186 19.647 13.6053L20.527 13.3333C21.007 13.1839 21.4283 13.0026 21.791 12.7893C22.1537 12.5653 22.4363 12.2879 22.639 11.9573C22.8417 11.6159 22.943 11.1999 22.943 10.7093V10.6453C22.943 9.94128 22.6977 9.38661 22.207 8.98128C21.7163 8.56528 21.087 8.35728 20.319 8.35728C19.5083 8.35728 18.847 8.57595 18.335 9.01328C17.823 9.43995 17.567 10.0906 17.567 10.9653V11.1893H16.287V10.9813C16.287 10.1706 16.463 9.48261 16.815 8.91728C17.167 8.35195 17.647 7.92528 18.255 7.63728C18.863 7.33861 19.551 7.18928 20.319 7.18928C21.087 7.18928 21.7643 7.33328 22.351 7.62128C22.9483 7.90928 23.4123 8.30928 23.743 8.82128C24.0737 9.33328 24.239 9.93061 24.239 10.6133V10.7573C24.239 11.4826 24.095 12.0853 23.807 12.5653C23.519 13.0346 23.119 13.4186 22.607 13.7173C22.1057 14.0159 21.5137 14.2719 20.831 14.4853L19.967 14.7573C19.423 14.9279 18.9697 15.1093 18.607 15.3013C18.255 15.4826 17.9883 15.7173 17.807 16.0053C17.6257 16.2933 17.535 16.6826 17.535 17.1733V17.4453H24.143V18.6133H16.223ZM30.1356 18.8373C28.8663 18.8373 27.853 18.4639 27.0956 17.7173C26.349 16.9599 25.9756 15.8293 25.9756 14.3253V11.7013C25.9756 10.2079 26.349 9.08261 27.0956 8.32528C27.853 7.56795 28.8663 7.18928 30.1356 7.18928C31.4156 7.18928 32.429 7.56795 33.1756 8.32528C33.933 9.08261 34.3116 10.2079 34.3116 11.7013V14.3253C34.3116 15.8293 33.933 16.9599 33.1756 17.7173C32.429 18.4639 31.4156 18.8373 30.1356 18.8373ZM30.1356 17.6693C31.0956 17.6693 31.8156 17.3813 32.2956 16.8053C32.7756 16.2293 33.0156 15.4239 33.0156 14.3893V11.6213C33.0156 10.5866 32.7703 9.78661 32.2796 9.22128C31.789 8.64528 31.0743 8.35728 30.1356 8.35728C29.197 8.35728 28.4823 8.64528 27.9916 9.22128C27.5116 9.79728 27.2716 10.5973 27.2716 11.6213V14.3893C27.2716 15.4346 27.5116 16.2453 27.9916 16.8213C28.4716 17.3866 29.1863 17.6693 30.1356 17.6693ZM36.1136 18.6133V17.4453C36.1136 16.6453 36.2523 16.0053 36.5296 15.5253C36.8176 15.0453 37.2123 14.6613 37.7136 14.3733C38.2256 14.0746 38.8336 13.8186 39.5376 13.6053L40.4176 13.3333C40.8976 13.1839 41.319 13.0026 41.6816 12.7893C42.0443 12.5653 42.327 12.2879 42.5296 11.9573C42.7323 11.6159 42.8336 11.1999 42.8336 10.7093V10.6453C42.8336 9.94128 42.5883 9.38661 42.0976 8.98128C41.607 8.56528 40.9776 8.35728 40.2096 8.35728C39.399 8.35728 38.7376 8.57595 38.2256 9.01328C37.7136 9.43995 37.4576 10.0906 37.4576 10.9653V11.1893H36.1776V10.9813C36.1776 10.1706 36.3536 9.48261 36.7056 8.91728C37.0576 8.35195 37.5376 7.92528 38.1456 7.63728C38.7536 7.33861 39.4416 7.18928 40.2096 7.18928C40.9776 7.18928 41.655 7.33328 42.2416 7.62128C42.839 7.90928 43.303 8.30928 43.6336 8.82128C43.9643 9.33328 44.1296 9.93061 44.1296 10.6133V10.7573C44.1296 11.4826 43.9856 12.0853 43.6976 12.5653C43.4096 13.0346 43.0096 13.4186 42.4976 13.7173C41.9963 14.0159 41.4043 14.2719 40.7216 14.4853L39.8576 14.7573C39.3136 14.9279 38.8603 15.1093 38.4976 15.3013C38.1456 15.4826 37.879 15.7173 37.6976 16.0053C37.5163 16.2933 37.4256 16.6826 37.4256 17.1733V17.4453H44.0336V18.6133H36.1136ZM49.6918 18.8373C48.9024 18.8373 48.1931 18.6879 47.5638 18.3893C46.9451 18.0906 46.4544 17.6586 46.0918 17.0933C45.7398 16.5279 45.5638 15.8453 45.5638 15.0453V14.7413H46.8598V15.0293C46.8598 15.8506 47.1211 16.4959 47.6438 16.9653C48.1664 17.4346 48.8491 17.6693 49.6918 17.6693C50.5451 17.6693 51.2064 17.4506 51.6758 17.0133C52.1558 16.5653 52.3958 16.0053 52.3958 15.3333V15.2053C52.3958 14.7146 52.2784 14.3199 52.0438 14.0213C51.8091 13.7119 51.4891 13.4879 51.0838 13.3493C50.6891 13.1999 50.2518 13.1253 49.7718 13.1253H47.9478V11.5093L52.2198 8.77328V8.58128H45.8358V7.41328H53.5958V9.22128L49.4198 11.9093V12.1013H50.2198C50.8491 12.1013 51.4251 12.2186 51.9478 12.4533C52.4811 12.6773 52.9024 13.0186 53.2118 13.4773C53.5318 13.9253 53.6918 14.4906 53.6918 15.1733V15.3493C53.6918 16.0533 53.5264 16.6666 53.1958 17.1893C52.8651 17.7119 52.4011 18.1173 51.8038 18.4053C51.2064 18.6933 50.5024 18.8373 49.6918 18.8373ZM59.8894 18.6133V7.41328H64.1774C64.8494 7.41328 65.4467 7.54661 65.9694 7.81328C66.5027 8.06928 66.924 8.43728 67.2334 8.91728C67.5427 9.39728 67.6974 9.97861 67.6974 10.6613V10.8693C67.6974 11.5413 67.5374 12.1226 67.2174 12.6133C66.908 13.0933 66.4867 13.4613 65.9534 13.7173C65.42 13.9733 64.828 14.1013 64.1774 14.1013H61.2334V18.6133H59.8894ZM61.2334 12.8853H64.0334C64.748 12.8853 65.3134 12.7093 65.7294 12.3573C66.1454 11.9946 66.3534 11.4879 66.3534 10.8373V10.6773C66.3534 10.0266 66.1454 9.52528 65.7294 9.17328C65.324 8.81061 64.7587 8.62928 64.0334 8.62928H61.2334V12.8853ZM72.9128 18.8373C72.1234 18.8373 71.4248 18.6719 70.8168 18.3413C70.2194 18.0106 69.7501 17.5466 69.4088 16.9493C69.0781 16.3413 68.9128 15.6266 68.9128 14.8053V14.5973C68.9128 13.7866 69.0781 13.0773 69.4088 12.4693C69.7501 11.8613 70.2194 11.3919 70.8168 11.0613C71.4248 10.7306 72.1234 10.5653 72.9128 10.5653C73.7021 10.5653 74.3954 10.7306 74.9928 11.0613C75.6008 11.3919 76.0701 11.8613 76.4008 12.4693C76.7421 13.0773 76.9128 13.7866 76.9128 14.5973V14.8053C76.9128 15.6266 76.7421 16.3413 76.4008 16.9493C76.0701 17.5466 75.6008 18.0106 74.9928 18.3413C74.3954 18.6719 73.7021 18.8373 72.9128 18.8373ZM72.9128 17.7013C73.7448 17.7013 74.4061 17.4399 74.8968 16.9173C75.3981 16.3839 75.6488 15.6693 75.6488 14.7733V14.6293C75.6488 13.7333 75.3981 13.0239 74.8968 12.5013C74.4061 11.9679 73.7448 11.7013 72.9128 11.7013C72.0914 11.7013 71.4301 11.9679 70.9288 12.5013C70.4274 13.0239 70.1768 13.7333 70.1768 14.6293V14.7733C70.1768 15.6693 70.4274 16.3839 70.9288 16.9173C71.4301 17.4399 72.0914 17.7013 72.9128 17.7013ZM82.3394 18.8373C81.3687 18.8373 80.5474 18.6133 79.8754 18.1653C79.214 17.7173 78.814 17.0079 78.6754 16.0373L79.8754 15.7653C79.9607 16.2773 80.1207 16.6826 80.3554 16.9813C80.59 17.2693 80.878 17.4773 81.2194 17.6053C81.5714 17.7226 81.9447 17.7813 82.3394 17.7813C82.926 17.7813 83.39 17.6639 83.7314 17.4293C84.0727 17.1946 84.2434 16.8799 84.2434 16.4853C84.2434 16.0799 84.078 15.7973 83.7474 15.6373C83.4274 15.4666 82.9847 15.3279 82.4194 15.2213L81.7634 15.1093C81.262 15.0239 80.8034 14.8906 80.3874 14.7093C79.9714 14.5279 79.6407 14.2826 79.3954 13.9733C79.15 13.6639 79.0274 13.2746 79.0274 12.8053C79.0274 12.1013 79.2994 11.5519 79.8434 11.1573C80.3874 10.7626 81.1074 10.5653 82.0034 10.5653C82.8887 10.5653 83.6034 10.7679 84.1474 11.1733C84.702 11.5679 85.0594 12.1279 85.2194 12.8533L84.0354 13.1573C83.9394 12.5919 83.71 12.1973 83.3474 11.9733C82.9847 11.7386 82.5367 11.6213 82.0034 11.6213C81.47 11.6213 81.0487 11.7226 80.7394 11.9253C80.43 12.1173 80.2754 12.4053 80.2754 12.7893C80.2754 13.1626 80.4194 13.4399 80.7074 13.6213C81.006 13.7919 81.4007 13.9199 81.8914 14.0053L82.5474 14.1173C83.102 14.2133 83.598 14.3466 84.0354 14.5173C84.4834 14.6773 84.8354 14.9119 85.0914 15.2213C85.358 15.5306 85.4914 15.9359 85.4914 16.4373C85.4914 17.2053 85.2034 17.7973 84.6274 18.2133C84.062 18.6293 83.2994 18.8373 82.3394 18.8373ZM87.6249 18.6133V10.7893H88.8889V18.6133H87.6249ZM88.2649 9.57328C87.9875 9.57328 87.7529 9.48261 87.5609 9.30128C87.3795 9.11995 87.2889 8.89061 87.2889 8.61328C87.2889 8.32528 87.3795 8.09061 87.5609 7.90928C87.7529 7.72795 87.9875 7.63728 88.2649 7.63728C88.5422 7.63728 88.7715 7.72795 88.9529 7.90928C89.1342 8.09061 89.2249 8.32528 89.2249 8.61328C89.2249 8.89061 89.1342 9.11995 88.9529 9.30128C88.7715 9.48261 88.5422 9.57328 88.2649 9.57328ZM94.4268 18.6133C93.9788 18.6133 93.6321 18.4906 93.3868 18.2453C93.1521 17.9999 93.0348 17.6639 93.0348 17.2373V11.8933H90.6828V10.7893H93.0348V8.00528H94.2988V10.7893H96.8588V11.8933H94.2988V17.0453C94.2988 17.3653 94.4534 17.5253 94.7628 17.5253H96.5068V18.6133H94.4268ZM98.9061 18.6133V10.7893H100.17V18.6133H98.9061ZM99.5461 9.57328C99.2688 9.57328 99.0341 9.48261 98.8421 9.30128C98.6608 9.11995 98.5701 8.89061 98.5701 8.61328C98.5701 8.32528 98.6608 8.09061 98.8421 7.90928C99.0341 7.72795 99.2688 7.63728 99.5461 7.63728C99.8235 7.63728 100.053 7.72795 100.234 7.90928C100.415 8.09061 100.506 8.32528 100.506 8.61328C100.506 8.89061 100.415 9.11995 100.234 9.30128C100.053 9.48261 99.8235 9.57328 99.5461 9.57328ZM104.812 18.6133L102.012 10.7893H103.356L105.708 17.6693H105.932L108.284 10.7893H109.628L106.828 18.6133H104.812ZM114.445 18.7573C113.88 18.7573 113.357 18.6346 112.877 18.3893C112.408 18.1439 112.034 17.7813 111.757 17.3013C111.49 16.8106 111.357 16.2186 111.357 15.5253V10.7893H112.621V15.4293C112.621 16.2079 112.813 16.7733 113.197 17.1253C113.592 17.4773 114.12 17.6533 114.781 17.6533C115.528 17.6533 116.141 17.4079 116.621 16.9173C117.101 16.4266 117.341 15.6959 117.341 14.7253V10.7893H118.605V18.6133H117.373V17.2853H117.149C116.978 17.6586 116.685 17.9999 116.269 18.3093C115.853 18.6079 115.245 18.7573 114.445 18.7573ZM124.402 18.8373C123.431 18.8373 122.61 18.6133 121.938 18.1653C121.277 17.7173 120.877 17.0079 120.738 16.0373L121.938 15.7653C122.023 16.2773 122.183 16.6826 122.418 16.9813C122.653 17.2693 122.941 17.4773 123.282 17.6053C123.634 17.7226 124.007 17.7813 124.402 17.7813C124.989 17.7813 125.453 17.6639 125.794 17.4293C126.135 17.1946 126.306 16.8799 126.306 16.4853C126.306 16.0799 126.141 15.7973 125.81 15.6373C125.49 15.4666 125.047 15.3279 124.482 15.2213L123.826 15.1093C123.325 15.0239 122.866 14.8906 122.45 14.7093C122.034 14.5279 121.703 14.2826 121.458 13.9733C121.213 13.6639 121.09 13.2746 121.09 12.8053C121.09 12.1013 121.362 11.5519 121.906 11.1573C122.45 10.7626 123.17 10.5653 124.066 10.5653C124.951 10.5653 125.666 10.7679 126.21 11.1733C126.765 11.5679 127.122 12.1279 127.282 12.8533L126.098 13.1573C126.002 12.5919 125.773 12.1973 125.41 11.9733C125.047 11.7386 124.599 11.6213 124.066 11.6213C123.533 11.6213 123.111 11.7226 122.802 11.9253C122.493 12.1173 122.338 12.4053 122.338 12.7893C122.338 13.1626 122.482 13.4399 122.77 13.6213C123.069 13.7919 123.463 13.9199 123.954 14.0053L124.61 14.1173C125.165 14.2133 125.661 14.3466 126.098 14.5173C126.546 14.6773 126.898 14.9119 127.154 15.2213C127.421 15.5306 127.554 15.9359 127.554 16.4373C127.554 17.2053 127.266 17.7973 126.69 18.2133C126.125 18.6293 125.362 18.8373 124.402 18.8373ZM130.375 18.8373C130.066 18.8373 129.805 18.7359 129.591 18.5333C129.389 18.3306 129.287 18.0693 129.287 17.7493C129.287 17.4293 129.389 17.1679 129.591 16.9653C129.805 16.7626 130.066 16.6613 130.375 16.6613C130.695 16.6613 130.957 16.7626 131.159 16.9653C131.362 17.1679 131.463 17.4293 131.463 17.7493C131.463 18.0693 131.362 18.3306 131.159 18.5333C130.957 18.7359 130.695 18.8373 130.375 18.8373ZM136.181 18.6133L139.637 7.41328H142.005L145.461 18.6133H144.069L143.205 15.7813H138.437L137.573 18.6133H136.181ZM138.773 14.5653H142.853L140.933 8.22928H140.709L138.773 14.5653ZM147.187 18.6133V7.41328H148.451V18.6133H147.187ZM151.109 18.6133V7.41328H152.373V18.6133H151.109ZM159.093 18.6133V7.41328H163.621C164.314 7.41328 164.922 7.53595 165.445 7.78128C165.978 8.01595 166.394 8.35728 166.693 8.80528C166.991 9.24261 167.141 9.77061 167.141 10.3893V10.5653C167.141 11.3013 166.965 11.8826 166.613 12.3093C166.261 12.7359 165.845 13.0239 165.365 13.1733V13.3973C165.749 13.4079 166.063 13.5359 166.309 13.7813C166.565 14.0159 166.693 14.3733 166.693 14.8533V18.6133H165.365V15.0133C165.365 14.6933 165.274 14.4479 165.093 14.2773C164.922 14.1066 164.661 14.0213 164.309 14.0213H160.437V18.6133H159.093ZM160.437 12.8053H163.493C164.229 12.8053 164.794 12.6293 165.189 12.2773C165.594 11.9146 165.797 11.4133 165.797 10.7733V10.6613C165.797 10.0213 165.599 9.52528 165.205 9.17328C164.81 8.81061 164.239 8.62928 163.493 8.62928H160.437V12.8053ZM169.234 18.6133V10.7893H170.498V18.6133H169.234ZM169.874 9.57328C169.597 9.57328 169.362 9.48261 169.17 9.30128C168.989 9.11995 168.898 8.89061 168.898 8.61328C168.898 8.32528 168.989 8.09061 169.17 7.90928C169.362 7.72795 169.597 7.63728 169.874 7.63728C170.152 7.63728 170.381 7.72795 170.562 7.90928C170.744 8.09061 170.834 8.32528 170.834 8.61328C170.834 8.89061 170.744 9.11995 170.562 9.30128C170.381 9.48261 170.152 9.57328 169.874 9.57328ZM172.772 14.7413V14.5173C172.772 13.6959 172.937 12.9919 173.268 12.4053C173.599 11.8186 174.047 11.3653 174.612 11.0453C175.177 10.7253 175.796 10.5653 176.468 10.5653C177.289 10.5653 177.919 10.7253 178.356 11.0453C178.804 11.3546 179.135 11.7013 179.348 12.0853H179.572V10.7893H180.772V20.4373C180.772 20.8639 180.655 21.1999 180.42 21.4453C180.185 21.6906 179.844 21.8133 179.396 21.8133H174.084V20.6933H179.06C179.38 20.6933 179.54 20.5333 179.54 20.2133V17.2373H179.316C179.188 17.4719 179.007 17.7013 178.772 17.9253C178.537 18.1493 178.233 18.3359 177.86 18.4853C177.487 18.6239 177.023 18.6933 176.468 18.6933C175.796 18.6933 175.177 18.5333 174.612 18.2133C174.047 17.8933 173.599 17.4399 173.268 16.8533C172.937 16.2559 172.772 15.5519 172.772 14.7413ZM176.804 17.5733C177.615 17.5733 178.271 17.3173 178.772 16.8053C179.284 16.2933 179.54 15.5893 179.54 14.6933V14.5653C179.54 13.6586 179.284 12.9546 178.772 12.4533C178.271 11.9413 177.615 11.6853 176.804 11.6853C176.004 11.6853 175.343 11.9413 174.82 12.4533C174.308 12.9546 174.052 13.6586 174.052 14.5653V14.6933C174.052 15.5893 174.308 16.2933 174.82 16.8053C175.343 17.3173 176.004 17.5733 176.804 17.5733ZM183.422 18.6133V7.41328H184.686V12.0373H184.91C185.016 11.8026 185.176 11.5839 185.39 11.3813C185.614 11.1679 185.896 10.9919 186.238 10.8533C186.59 10.7146 187.032 10.6453 187.566 10.6453C188.152 10.6453 188.675 10.7733 189.134 11.0293C189.603 11.2746 189.976 11.6373 190.254 12.1173C190.531 12.5866 190.67 13.1733 190.67 13.8773V18.6133H189.406V13.9733C189.406 13.1946 189.208 12.6293 188.814 12.2773C188.43 11.9253 187.907 11.7493 187.246 11.7493C186.488 11.7493 185.87 11.9946 185.39 12.4853C184.92 12.9759 184.686 13.7066 184.686 14.6773V18.6133H183.422ZM195.896 18.6133C195.448 18.6133 195.101 18.4906 194.856 18.2453C194.621 17.9999 194.504 17.6639 194.504 17.2373V11.8933H192.152V10.7893H194.504V8.00528H195.768V10.7893H198.328V11.8933H195.768V17.0453C195.768 17.3653 195.922 17.5253 196.232 17.5253H197.976V18.6133H195.896ZM203.527 18.8373C202.556 18.8373 201.735 18.6133 201.063 18.1653C200.402 17.7173 200.002 17.0079 199.863 16.0373L201.063 15.7653C201.148 16.2773 201.308 16.6826 201.543 16.9813C201.778 17.2693 202.066 17.4773 202.407 17.6053C202.759 17.7226 203.132 17.7813 203.527 17.7813C204.114 17.7813 204.578 17.6639 204.919 17.4293C205.26 17.1946 205.431 16.8799 205.431 16.4853C205.431 16.0799 205.266 15.7973 204.935 15.6373C204.615 15.4666 204.172 15.3279 203.607 15.2213L202.951 15.1093C202.45 15.0239 201.991 14.8906 201.575 14.7093C201.159 14.5279 200.828 14.2826 200.583 13.9733C200.338 13.6639 200.215 13.2746 200.215 12.8053C200.215 12.1013 200.487 11.5519 201.031 11.1573C201.575 10.7626 202.295 10.5653 203.191 10.5653C204.076 10.5653 204.791 10.7679 205.335 11.1733C205.89 11.5679 206.247 12.1279 206.407 12.8533L205.223 13.1573C205.127 12.5919 204.898 12.1973 204.535 11.9733C204.172 11.7386 203.724 11.6213 203.191 11.6213C202.658 11.6213 202.236 11.7226 201.927 11.9253C201.618 12.1173 201.463 12.4053 201.463 12.7893C201.463 13.1626 201.607 13.4399 201.895 13.6213C202.194 13.7919 202.588 13.9199 203.079 14.0053L203.735 14.1173C204.29 14.2133 204.786 14.3466 205.223 14.5173C205.671 14.6773 206.023 14.9119 206.279 15.2213C206.546 15.5306 206.679 15.9359 206.679 16.4373C206.679 17.2053 206.391 17.7973 205.815 18.2133C205.25 18.6293 204.487 18.8373 203.527 18.8373ZM212.874 18.6133V7.41328H217.402C218.095 7.41328 218.703 7.53595 219.226 7.78128C219.759 8.01595 220.175 8.35728 220.474 8.80528C220.772 9.24261 220.922 9.77061 220.922 10.3893V10.5653C220.922 11.3013 220.746 11.8826 220.394 12.3093C220.042 12.7359 219.626 13.0239 219.146 13.1733V13.3973C219.53 13.4079 219.844 13.5359 220.09 13.7813C220.346 14.0159 220.474 14.3733 220.474 14.8533V18.6133H219.146V15.0133C219.146 14.6933 219.055 14.4479 218.874 14.2773C218.703 14.1066 218.442 14.0213 218.09 14.0213H214.218V18.6133H212.874ZM214.218 12.8053H217.274C218.01 12.8053 218.575 12.6293 218.97 12.2773C219.375 11.9146 219.578 11.4133 219.578 10.7733V10.6613C219.578 10.0213 219.38 9.52528 218.986 9.17328C218.591 8.81061 218.02 8.62928 217.274 8.62928H214.218V12.8053ZM226.6 18.8373C225.81 18.8373 225.117 18.6719 224.52 18.3413C223.922 17.9999 223.458 17.5253 223.128 16.9173C222.797 16.3093 222.632 15.6053 222.632 14.8053V14.6133C222.632 13.8026 222.797 13.0933 223.128 12.4853C223.458 11.8773 223.917 11.4079 224.504 11.0773C225.09 10.7359 225.762 10.5653 226.52 10.5653C227.256 10.5653 227.906 10.7253 228.472 11.0453C229.037 11.3546 229.48 11.8026 229.8 12.3893C230.12 12.9759 230.28 13.6639 230.28 14.4533V15.0293H223.896C223.928 15.8719 224.2 16.5333 224.712 17.0133C225.224 17.4826 225.864 17.7173 226.632 17.7173C227.304 17.7173 227.821 17.5626 228.184 17.2533C228.546 16.9439 228.824 16.5759 229.016 16.1493L230.104 16.6773C229.944 17.0079 229.72 17.3386 229.432 17.6693C229.154 17.9999 228.786 18.2773 228.328 18.5013C227.88 18.7253 227.304 18.8373 226.6 18.8373ZM223.912 13.9893H229C228.957 13.2639 228.706 12.6986 228.248 12.2933C227.8 11.8879 227.224 11.6853 226.52 11.6853C225.805 11.6853 225.218 11.8879 224.76 12.2933C224.301 12.6986 224.018 13.2639 223.912 13.9893ZM235.636 18.8373C234.666 18.8373 233.844 18.6133 233.172 18.1653C232.511 17.7173 232.111 17.0079 231.972 16.0373L233.172 15.7653C233.258 16.2773 233.418 16.6826 233.652 16.9813C233.887 17.2693 234.175 17.4773 234.516 17.6053C234.868 17.7226 235.242 17.7813 235.636 17.7813C236.223 17.7813 236.687 17.6639 237.028 17.4293C237.37 17.1946 237.54 16.8799 237.54 16.4853C237.54 16.0799 237.375 15.7973 237.044 15.6373C236.724 15.4666 236.282 15.3279 235.716 15.2213L235.06 15.1093C234.559 15.0239 234.1 14.8906 233.684 14.7093C233.268 14.5279 232.938 14.2826 232.692 13.9733C232.447 13.6639 232.324 13.2746 232.324 12.8053C232.324 12.1013 232.596 11.5519 233.14 11.1573C233.684 10.7626 234.404 10.5653 235.3 10.5653C236.186 10.5653 236.9 10.7679 237.444 11.1733C237.999 11.5679 238.356 12.1279 238.516 12.8533L237.332 13.1573C237.236 12.5919 237.007 12.1973 236.644 11.9733C236.282 11.7386 235.834 11.6213 235.3 11.6213C234.767 11.6213 234.346 11.7226 234.036 11.9253C233.727 12.1173 233.572 12.4053 233.572 12.7893C233.572 13.1626 233.716 13.4399 234.004 13.6213C234.303 13.7919 234.698 13.9199 235.188 14.0053L235.844 14.1173C236.399 14.2133 236.895 14.3466 237.332 14.5173C237.78 14.6773 238.132 14.9119 238.388 15.2213C238.655 15.5306 238.788 15.9359 238.788 16.4373C238.788 17.2053 238.5 17.7973 237.924 18.2133C237.359 18.6293 236.596 18.8373 235.636 18.8373ZM244.506 18.8373C243.716 18.8373 243.023 18.6719 242.426 18.3413C241.828 17.9999 241.364 17.5253 241.034 16.9173C240.703 16.3093 240.538 15.6053 240.538 14.8053V14.6133C240.538 13.8026 240.703 13.0933 241.034 12.4853C241.364 11.8773 241.823 11.4079 242.41 11.0773C242.996 10.7359 243.668 10.5653 244.426 10.5653C245.162 10.5653 245.812 10.7253 246.378 11.0453C246.943 11.3546 247.386 11.8026 247.706 12.3893C248.026 12.9759 248.186 13.6639 248.186 14.4533V15.0293H241.802C241.834 15.8719 242.106 16.5333 242.618 17.0133C243.13 17.4826 243.77 17.7173 244.538 17.7173C245.21 17.7173 245.727 17.5626 246.09 17.2533C246.452 16.9439 246.73 16.5759 246.922 16.1493L248.01 16.6773C247.85 17.0079 247.626 17.3386 247.338 17.6693C247.06 17.9999 246.692 18.2773 246.234 18.5013C245.786 18.7253 245.21 18.8373 244.506 18.8373ZM241.818 13.9893H246.906C246.863 13.2639 246.612 12.6986 246.154 12.2933C245.706 11.8879 245.13 11.6853 244.426 11.6853C243.711 11.6853 243.124 11.8879 242.666 12.2933C242.207 12.6986 241.924 13.2639 241.818 13.9893ZM250.391 18.6133V10.7893H251.623V11.7493H251.847C251.985 11.4079 252.199 11.1573 252.487 10.9973C252.775 10.8373 253.153 10.7573 253.623 10.7573H254.551V11.9093H253.543C252.977 11.9093 252.519 12.0693 252.167 12.3893C251.825 12.6986 251.655 13.1839 251.655 13.8453V18.6133H250.391ZM258.406 18.6133L255.606 10.7893H256.95L259.302 17.6693H259.526L261.878 10.7893H263.222L260.422 18.6133H258.406ZM268.318 18.8373C267.529 18.8373 266.836 18.6719 266.238 18.3413C265.641 17.9999 265.177 17.5253 264.846 16.9173C264.516 16.3093 264.35 15.6053 264.35 14.8053V14.6133C264.35 13.8026 264.516 13.0933 264.846 12.4853C265.177 11.8773 265.636 11.4079 266.222 11.0773C266.809 10.7359 267.481 10.5653 268.238 10.5653C268.974 10.5653 269.625 10.7253 270.19 11.0453C270.756 11.3546 271.198 11.8026 271.518 12.3893C271.838 12.9759 271.998 13.6639 271.998 14.4533V15.0293H265.614C265.646 15.8719 265.918 16.5333 266.43 17.0133C266.942 17.4826 267.582 17.7173 268.35 17.7173C269.022 17.7173 269.54 17.5626 269.902 17.2533C270.265 16.9439 270.542 16.5759 270.734 16.1493L271.822 16.6773C271.662 17.0079 271.438 17.3386 271.15 17.6693C270.873 17.9999 270.505 18.2773 270.046 18.5013C269.598 18.7253 269.022 18.8373 268.318 18.8373ZM265.63 13.9893H270.718C270.676 13.2639 270.425 12.6986 269.966 12.2933C269.518 11.8879 268.942 11.6853 268.238 11.6853C267.524 11.6853 266.937 11.8879 266.478 12.2933C266.02 12.6986 265.737 13.2639 265.63 13.9893ZM277.515 18.8373C276.843 18.8373 276.224 18.6773 275.659 18.3573C275.094 18.0373 274.646 17.5733 274.315 16.9653C273.984 16.3573 273.819 15.6373 273.819 14.8053V14.5973C273.819 13.7653 273.984 13.0506 274.315 12.4533C274.646 11.8453 275.088 11.3813 275.643 11.0613C276.208 10.7306 276.832 10.5653 277.515 10.5653C278.059 10.5653 278.518 10.6399 278.891 10.7893C279.275 10.9279 279.584 11.1093 279.819 11.3333C280.054 11.5466 280.235 11.7759 280.363 12.0213H280.587V7.41328H281.851V18.6133H280.619V17.3173H280.395C280.182 17.7119 279.851 18.0639 279.403 18.3733C278.955 18.6826 278.326 18.8373 277.515 18.8373ZM277.851 17.7173C278.662 17.7173 279.318 17.4613 279.819 16.9493C280.331 16.4266 280.587 15.7013 280.587 14.7733V14.6293C280.587 13.7013 280.331 12.9813 279.819 12.4693C279.318 11.9466 278.662 11.6853 277.851 11.6853C277.051 11.6853 276.39 11.9466 275.867 12.4693C275.355 12.9813 275.099 13.7013 275.099 14.6293V14.7733C275.099 15.7013 275.355 16.4266 275.867 16.9493C276.39 17.4613 277.051 17.7173 277.851 17.7173ZM285.188 18.8373C284.879 18.8373 284.617 18.7359 284.404 18.5333C284.201 18.3306 284.1 18.0693 284.1 17.7493C284.1 17.4293 284.201 17.1679 284.404 16.9653C284.617 16.7626 284.879 16.6613 285.188 16.6613C285.508 16.6613 285.769 16.7626 285.972 16.9653C286.175 17.1679 286.276 17.4293 286.276 17.7493C286.276 18.0693 286.175 18.3306 285.972 18.5333C285.769 18.7359 285.508 18.8373 285.188 18.8373Z" fill="white"/>
<path d="M92.28 57.6133V46.4133H96.568C97.24 46.4133 97.8373 46.5466 98.36 46.8133C98.8933 47.0693 99.3147 47.4373 99.624 47.9173C99.9333 48.3973 100.088 48.9786 100.088 49.6613V49.8693C100.088 50.5413 99.928 51.1226 99.608 51.6133C99.2987 52.0933 98.8773 52.4613 98.344 52.7173C97.8107 52.9733 97.2187 53.1013 96.568 53.1013H93.624V57.6133H92.28ZM93.624 51.8853H96.424C97.1387 51.8853 97.704 51.7093 98.12 51.3573C98.536 50.9946 98.744 50.4879 98.744 49.8373V49.6773C98.744 49.0266 98.536 48.5253 98.12 48.1733C97.7147 47.8106 97.1493 47.6293 96.424 47.6293H93.624V51.8853ZM101.937 57.6133V49.7893H103.169V50.7493H103.393C103.532 50.4079 103.745 50.1573 104.033 49.9973C104.321 49.8373 104.7 49.7573 105.169 49.7573H106.097V50.9093H105.089C104.524 50.9093 104.065 51.0693 103.713 51.3893C103.372 51.6986 103.201 52.1839 103.201 52.8453V57.6133H101.937ZM107.969 57.6133V49.7893H109.233V57.6133H107.969ZM108.609 48.5733C108.331 48.5733 108.097 48.4826 107.905 48.3013C107.723 48.1199 107.633 47.8906 107.633 47.6133C107.633 47.3253 107.723 47.0906 107.905 46.9093C108.097 46.7279 108.331 46.6373 108.609 46.6373C108.886 46.6373 109.115 46.7279 109.297 46.9093C109.478 47.0906 109.569 47.3253 109.569 47.6133C109.569 47.8906 109.478 48.1199 109.297 48.3013C109.115 48.4826 108.886 48.5733 108.609 48.5733ZM113.875 57.6133L111.075 49.7893H112.419L114.771 56.6693H114.995L117.347 49.7893H118.691L115.891 57.6133H113.875ZM122.666 57.8373C122.122 57.8373 121.626 57.7413 121.178 57.5493C120.73 57.3573 120.378 57.0799 120.122 56.7173C119.866 56.3546 119.738 55.9119 119.738 55.3893C119.738 54.8559 119.866 54.4186 120.122 54.0773C120.378 53.7253 120.73 53.4639 121.178 53.2933C121.626 53.1119 122.127 53.0213 122.682 53.0213H125.322V52.4453C125.322 51.8906 125.156 51.4533 124.826 51.1333C124.506 50.8133 124.026 50.6533 123.386 50.6533C122.756 50.6533 122.266 50.8079 121.914 51.1173C121.562 51.4159 121.322 51.8213 121.194 52.3333L120.01 51.9493C120.138 51.5119 120.34 51.1173 120.618 50.7653C120.895 50.4026 121.263 50.1146 121.722 49.9013C122.191 49.6773 122.751 49.5653 123.402 49.5653C124.404 49.5653 125.183 49.8266 125.738 50.3493C126.292 50.8613 126.57 51.5866 126.57 52.5253V56.0613C126.57 56.3813 126.719 56.5413 127.017 56.5413H127.738V57.6133H126.634C126.282 57.6133 125.999 57.5173 125.786 57.3253C125.572 57.1226 125.466 56.8559 125.466 56.5253V56.4453H125.274C125.156 56.6479 124.996 56.8613 124.794 57.0853C124.602 57.2986 124.335 57.4746 123.994 57.6133C123.652 57.7626 123.21 57.8373 122.666 57.8373ZM122.81 56.7493C123.556 56.7493 124.159 56.5306 124.618 56.0933C125.087 55.6453 125.322 55.0213 125.322 54.2213V54.0453H122.73C122.228 54.0453 121.812 54.1573 121.482 54.3813C121.162 54.5946 121.002 54.9199 121.002 55.3573C121.002 55.7946 121.167 56.1359 121.498 56.3813C121.839 56.6266 122.276 56.7493 122.81 56.7493ZM132.85 57.8373C132.093 57.8373 131.41 57.6773 130.802 57.3573C130.205 57.0266 129.73 56.5573 129.378 55.9493C129.037 55.3413 128.866 54.6213 128.866 53.7893V53.6133C128.866 52.7706 129.037 52.0506 129.378 51.4533C129.73 50.8453 130.205 50.3813 130.802 50.0613C131.41 49.7306 132.093 49.5653 132.85 49.5653C133.597 49.5653 134.231 49.7039 134.754 49.9813C135.287 50.2586 135.703 50.6266 136.002 51.0853C136.311 51.5439 136.509 52.0346 136.594 52.5573L135.362 52.8133C135.309 52.4293 135.181 52.0773 134.978 51.7573C134.786 51.4373 134.514 51.1813 134.162 50.9893C133.81 50.7973 133.378 50.7013 132.866 50.7013C132.343 50.7013 131.874 50.8186 131.458 51.0533C131.053 51.2879 130.727 51.6239 130.482 52.0613C130.247 52.4986 130.13 53.0213 130.13 53.6293V53.7733C130.13 54.3813 130.247 54.9039 130.482 55.3413C130.727 55.7786 131.053 56.1146 131.458 56.3493C131.874 56.5839 132.343 56.7013 132.866 56.7013C133.645 56.7013 134.237 56.4986 134.642 56.0933C135.058 55.6879 135.314 55.1866 135.41 54.5893L136.658 54.8613C136.541 55.3733 136.327 55.8586 136.018 56.3173C135.709 56.7759 135.287 57.1439 134.754 57.4213C134.231 57.6986 133.597 57.8373 132.85 57.8373ZM139.756 60.8133V59.6933H144.236C144.546 59.6933 144.7 59.5333 144.7 59.2133V56.3653H144.476C144.37 56.5893 144.204 56.8133 143.98 57.0373C143.767 57.2506 143.484 57.4266 143.132 57.5653C142.78 57.6933 142.338 57.7573 141.804 57.7573C141.239 57.7573 140.716 57.6346 140.236 57.3893C139.767 57.1439 139.394 56.7813 139.116 56.3013C138.85 55.8213 138.716 55.2346 138.716 54.5413V49.7893H139.98V54.4453C139.98 55.2133 140.172 55.7733 140.556 56.1253C140.951 56.4773 141.479 56.6533 142.14 56.6533C142.887 56.6533 143.5 56.4079 143.98 55.9173C144.46 55.4266 144.7 54.6959 144.7 53.7253V49.7893H145.964V59.4373C145.964 59.8639 145.842 60.1999 145.596 60.4453C145.362 60.6906 145.015 60.8133 144.556 60.8133H139.756ZM152.671 57.6133V46.4133H156.959C157.631 46.4133 158.228 46.5466 158.751 46.8133C159.284 47.0693 159.705 47.4373 160.015 47.9173C160.324 48.3973 160.479 48.9786 160.479 49.6613V49.8693C160.479 50.5413 160.319 51.1226 159.999 51.6133C159.689 52.0933 159.268 52.4613 158.735 52.7173C158.201 52.9733 157.609 53.1013 156.959 53.1013H154.015V57.6133H152.671ZM154.015 51.8853H156.815C157.529 51.8853 158.095 51.7093 158.511 51.3573C158.927 50.9946 159.135 50.4879 159.135 49.8373V49.6773C159.135 49.0266 158.927 48.5253 158.511 48.1733C158.105 47.8106 157.54 47.6293 156.815 47.6293H154.015V51.8853ZM165.694 57.8373C164.905 57.8373 164.206 57.6719 163.598 57.3413C163.001 57.0106 162.531 56.5466 162.19 55.9493C161.859 55.3413 161.694 54.6266 161.694 53.8053V53.5973C161.694 52.7866 161.859 52.0773 162.19 51.4693C162.531 50.8613 163.001 50.3919 163.598 50.0613C164.206 49.7306 164.905 49.5653 165.694 49.5653C166.483 49.5653 167.177 49.7306 167.774 50.0613C168.382 50.3919 168.851 50.8613 169.182 51.4693C169.523 52.0773 169.694 52.7866 169.694 53.5973V53.8053C169.694 54.6266 169.523 55.3413 169.182 55.9493C168.851 56.5466 168.382 57.0106 167.774 57.3413C167.177 57.6719 166.483 57.8373 165.694 57.8373ZM165.694 56.7013C166.526 56.7013 167.187 56.4399 167.678 55.9173C168.179 55.3839 168.43 54.6693 168.43 53.7733V53.6293C168.43 52.7333 168.179 52.0239 167.678 51.5013C167.187 50.9679 166.526 50.7013 165.694 50.7013C164.873 50.7013 164.211 50.9679 163.71 51.5013C163.209 52.0239 162.958 52.7333 162.958 53.6293V53.7733C162.958 54.6693 163.209 55.3839 163.71 55.9173C164.211 56.4399 164.873 56.7013 165.694 56.7013ZM171.969 57.6133V46.4133H173.233V57.6133H171.969ZM175.891 57.6133V49.7893H177.155V57.6133H175.891ZM176.531 48.5733C176.253 48.5733 176.019 48.4826 175.827 48.3013C175.645 48.1199 175.555 47.8906 175.555 47.6133C175.555 47.3253 175.645 47.0906 175.827 46.9093C176.019 46.7279 176.253 46.6373 176.531 46.6373C176.808 46.6373 177.037 46.7279 177.219 46.9093C177.4 47.0906 177.491 47.3253 177.491 47.6133C177.491 47.8906 177.4 48.1199 177.219 48.3013C177.037 48.4826 176.808 48.5733 176.531 48.5733ZM183.412 57.8373C182.655 57.8373 181.972 57.6773 181.364 57.3573C180.767 57.0266 180.292 56.5573 179.94 55.9493C179.599 55.3413 179.428 54.6213 179.428 53.7893V53.6133C179.428 52.7706 179.599 52.0506 179.94 51.4533C180.292 50.8453 180.767 50.3813 181.364 50.0613C181.972 49.7306 182.655 49.5653 183.412 49.5653C184.159 49.5653 184.794 49.7039 185.316 49.9813C185.85 50.2586 186.266 50.6266 186.564 51.0853C186.874 51.5439 187.071 52.0346 187.156 52.5573L185.924 52.8133C185.871 52.4293 185.743 52.0773 185.54 51.7573C185.348 51.4373 185.076 51.1813 184.724 50.9893C184.372 50.7973 183.94 50.7013 183.428 50.7013C182.906 50.7013 182.436 50.8186 182.02 51.0533C181.615 51.2879 181.29 51.6239 181.044 52.0613C180.81 52.4986 180.692 53.0213 180.692 53.6293V53.7733C180.692 54.3813 180.81 54.9039 181.044 55.3413C181.29 55.7786 181.615 56.1146 182.02 56.3493C182.436 56.5839 182.906 56.7013 183.428 56.7013C184.207 56.7013 184.799 56.4986 185.204 56.0933C185.62 55.6879 185.876 55.1866 185.972 54.5893L187.22 54.8613C187.103 55.3733 186.89 55.8586 186.58 56.3173C186.271 56.7759 185.85 57.1439 185.316 57.4213C184.794 57.6986 184.159 57.8373 183.412 57.8373ZM190.319 60.8133V59.6933H194.799C195.108 59.6933 195.263 59.5333 195.263 59.2133V56.3653H195.039C194.932 56.5893 194.767 56.8133 194.543 57.0373C194.33 57.2506 194.047 57.4266 193.695 57.5653C193.343 57.6933 192.9 57.7573 192.367 57.7573C191.802 57.7573 191.279 57.6346 190.799 57.3893C190.33 57.1439 189.956 56.7813 189.679 56.3013C189.412 55.8213 189.279 55.2346 189.279 54.5413V49.7893H190.543V54.4453C190.543 55.2133 190.735 55.7733 191.119 56.1253C191.514 56.4773 192.042 56.6533 192.703 56.6533C193.45 56.6533 194.063 56.4079 194.543 55.9173C195.023 55.4266 195.263 54.6959 195.263 53.7253V49.7893H196.527V59.4373C196.527 59.8639 196.404 60.1999 196.159 60.4453C195.924 60.6906 195.578 60.8133 195.119 60.8133H190.319Z" fill="white"/>
</svg>
