<svg width="485" height="28" viewBox="0 0 485 28" fill="none" xmlns="http://www.w3.org/2000/svg">
<path d="M6.228 20.216C5.196 20.216 4.29 20.018 3.51 19.622C2.742 19.214 2.142 18.602 1.71 17.786C1.29 16.97 1.08 15.938 1.08 14.69V12.71C1.08 11.462 1.29 10.43 1.71 9.614C2.142 8.798 2.742 8.192 3.51 7.796C4.29 7.388 5.196 7.184 6.228 7.184H6.462C7.506 7.184 8.412 7.388 9.18 7.796C9.948 8.192 10.542 8.798 10.962 9.614C11.382 10.43 11.592 11.462 11.592 12.71V14.69C11.592 15.938 11.382 16.97 10.962 17.786C10.542 18.602 9.948 19.214 9.18 19.622C8.412 20.018 7.506 20.216 6.462 20.216H6.228ZM6.264 19.046H6.444C7.668 19.046 8.622 18.698 9.306 18.002C10.002 17.294 10.35 16.19 10.35 14.69V12.71C10.35 11.21 10.002 10.112 9.306 9.416C8.622 8.708 7.668 8.354 6.444 8.354H6.264C5.028 8.354 4.062 8.708 3.366 9.416C2.682 10.112 2.34 11.21 2.34 12.71V14.69C2.34 16.19 2.682 17.294 3.366 18.002C4.062 18.698 5.028 19.046 6.264 19.046ZM6.444 17.606C5.628 17.606 4.98 17.366 4.5 16.886C4.032 16.406 3.798 15.698 3.798 14.762V12.674C3.798 11.714 4.038 10.988 4.518 10.496C5.01 10.004 5.64 9.758 6.408 9.758C7.236 9.758 7.866 10.004 8.298 10.496C8.73 10.976 8.946 11.6 8.946 12.368V12.71H7.704V12.26C7.704 11.876 7.608 11.552 7.416 11.288C7.224 11.024 6.894 10.892 6.426 10.892C6.03 10.892 5.7 11.024 5.436 11.288C5.172 11.54 5.04 11.912 5.04 12.404V15.032C5.04 15.5 5.178 15.854 5.454 16.094C5.73 16.334 6.054 16.454 6.426 16.454C6.834 16.454 7.146 16.34 7.362 16.112C7.59 15.884 7.704 15.53 7.704 15.05V14.672H8.946V15.014C8.946 15.782 8.736 16.406 8.316 16.886C7.896 17.366 7.272 17.606 6.444 17.606ZM18.2509 20V18.686C18.2509 17.786 18.4069 17.066 18.7189 16.526C19.0429 15.986 19.4869 15.554 20.0509 15.23C20.6269 14.894 21.3109 14.606 22.1029 14.366L23.0929 14.06C23.6329 13.892 24.1069 13.688 24.5149 13.448C24.9229 13.196 25.2409 12.884 25.4689 12.512C25.6969 12.128 25.8109 11.66 25.8109 11.108V11.036C25.8109 10.244 25.5349 9.62 24.9829 9.164C24.4309 8.696 23.7229 8.462 22.8589 8.462C21.9469 8.462 21.2029 8.708 20.6269 9.2C20.0509 9.68 19.7629 10.412 19.7629 11.396V11.648H18.3229V11.414C18.3229 10.502 18.5209 9.728 18.9169 9.092C19.3129 8.456 19.8529 7.976 20.5369 7.652C21.2209 7.316 21.9949 7.148 22.8589 7.148C23.7229 7.148 24.4849 7.31 25.1449 7.634C25.8169 7.958 26.3389 8.408 26.7109 8.984C27.0829 9.56 27.2689 10.232 27.2689 11V11.162C27.2689 11.978 27.1069 12.656 26.7829 13.196C26.4589 13.724 26.0089 14.156 25.4329 14.492C24.8689 14.828 24.2029 15.116 23.4349 15.356L22.4629 15.662C21.8509 15.854 21.3409 16.058 20.9329 16.274C20.5369 16.478 20.2369 16.742 20.0329 17.066C19.8289 17.39 19.7269 17.828 19.7269 18.38V18.686H27.1609V20H18.2509ZM33.9026 20.252C32.4746 20.252 31.3346 19.832 30.4826 18.992C29.6426 18.14 29.2226 16.868 29.2226 15.176V12.224C29.2226 10.544 29.6426 9.278 30.4826 8.426C31.3346 7.574 32.4746 7.148 33.9026 7.148C35.3426 7.148 36.4826 7.574 37.3226 8.426C38.1746 9.278 38.6006 10.544 38.6006 12.224V15.176C38.6006 16.868 38.1746 18.14 37.3226 18.992C36.4826 19.832 35.3426 20.252 33.9026 20.252ZM33.9026 18.938C34.9826 18.938 35.7926 18.614 36.3326 17.966C36.8726 17.318 37.1426 16.412 37.1426 15.248V12.134C37.1426 10.97 36.8666 10.07 36.3146 9.434C35.7626 8.786 34.9586 8.462 33.9026 8.462C32.8466 8.462 32.0426 8.786 31.4906 9.434C30.9506 10.082 30.6806 10.982 30.6806 12.134V15.248C30.6806 16.424 30.9506 17.336 31.4906 17.984C32.0306 18.62 32.8346 18.938 33.9026 18.938ZM40.6278 20V18.686C40.6278 17.786 40.7838 17.066 41.0958 16.526C41.4198 15.986 41.8638 15.554 42.4278 15.23C43.0038 14.894 43.6878 14.606 44.4798 14.366L45.4698 14.06C46.0098 13.892 46.4838 13.688 46.8918 13.448C47.2998 13.196 47.6178 12.884 47.8458 12.512C48.0738 12.128 48.1878 11.66 48.1878 11.108V11.036C48.1878 10.244 47.9118 9.62 47.3598 9.164C46.8078 8.696 46.0998 8.462 45.2358 8.462C44.3238 8.462 43.5798 8.708 43.0038 9.2C42.4278 9.68 42.1398 10.412 42.1398 11.396V11.648H40.6998V11.414C40.6998 10.502 40.8978 9.728 41.2938 9.092C41.6898 8.456 42.2298 7.976 42.9138 7.652C43.5978 7.316 44.3718 7.148 45.2358 7.148C46.0998 7.148 46.8618 7.31 47.5218 7.634C48.1938 7.958 48.7158 8.408 49.0878 8.984C49.4598 9.56 49.6458 10.232 49.6458 11V11.162C49.6458 11.978 49.4838 12.656 49.1598 13.196C48.8358 13.724 48.3858 14.156 47.8098 14.492C47.2458 14.828 46.5798 15.116 45.8118 15.356L44.8398 15.662C44.2278 15.854 43.7178 16.058 43.3098 16.274C42.9138 16.478 42.6138 16.742 42.4098 17.066C42.2058 17.39 42.1038 17.828 42.1038 18.38V18.686H49.5378V20H40.6278ZM55.9032 20.252C55.0152 20.252 54.2172 20.084 53.5092 19.748C52.8132 19.412 52.2612 18.926 51.8532 18.29C51.4572 17.654 51.2592 16.886 51.2592 15.986V15.644H52.7172V15.968C52.7172 16.892 53.0112 17.618 53.5992 18.146C54.1872 18.674 54.9552 18.938 55.9032 18.938C56.8632 18.938 57.6072 18.692 58.1352 18.2C58.6752 17.696 58.9452 17.066 58.9452 16.31V16.166C58.9452 15.614 58.8132 15.17 58.5492 14.834C58.2852 14.486 57.9252 14.234 57.4692 14.078C57.0252 13.91 56.5332 13.826 55.9932 13.826H53.9412V12.008L58.7472 8.93V8.714H51.5652V7.4H60.2952V9.434L55.5972 12.458V12.674H56.4972C57.2052 12.674 57.8532 12.806 58.4412 13.07C59.0412 13.322 59.5152 13.706 59.8632 14.222C60.2232 14.726 60.4032 15.362 60.4032 16.13V16.328C60.4032 17.12 60.2172 17.81 59.8452 18.398C59.4732 18.986 58.9512 19.442 58.2792 19.766C57.6072 20.09 56.8152 20.252 55.9032 20.252ZM67.3755 20V7.4H72.1995C72.9555 7.4 73.6275 7.55 74.2155 7.85C74.8155 8.138 75.2895 8.552 75.6375 9.092C75.9855 9.632 76.1595 10.286 76.1595 11.054V11.288C76.1595 12.044 75.9795 12.698 75.6195 13.25C75.2715 13.79 74.7975 14.204 74.1975 14.492C73.5975 14.78 72.9315 14.924 72.1995 14.924H68.8875V20H67.3755ZM68.8875 13.556H72.0375C72.8415 13.556 73.4775 13.358 73.9455 12.962C74.4135 12.554 74.6475 11.984 74.6475 11.252V11.072C74.6475 10.34 74.4135 9.776 73.9455 9.38C73.4895 8.972 72.8535 8.768 72.0375 8.768H68.8875V13.556ZM82.0268 20.252C81.1388 20.252 80.3528 20.066 79.6688 19.694C78.9968 19.322 78.4688 18.8 78.0848 18.128C77.7128 17.444 77.5268 16.64 77.5268 15.716V15.482C77.5268 14.57 77.7128 13.772 78.0848 13.088C78.4688 12.404 78.9968 11.876 79.6688 11.504C80.3528 11.132 81.1388 10.946 82.0268 10.946C82.9148 10.946 83.6948 11.132 84.3668 11.504C85.0508 11.876 85.5788 12.404 85.9508 13.088C86.3348 13.772 86.5268 14.57 86.5268 15.482V15.716C86.5268 16.64 86.3348 17.444 85.9508 18.128C85.5788 18.8 85.0508 19.322 84.3668 19.694C83.6948 20.066 82.9148 20.252 82.0268 20.252ZM82.0268 18.974C82.9628 18.974 83.7068 18.68 84.2588 18.092C84.8228 17.492 85.1048 16.688 85.1048 15.68V15.518C85.1048 14.51 84.8228 13.712 84.2588 13.124C83.7068 12.524 82.9628 12.224 82.0268 12.224C81.1028 12.224 80.3588 12.524 79.7948 13.124C79.2308 13.712 78.9488 14.51 78.9488 15.518V15.68C78.9488 16.688 79.2308 17.492 79.7948 18.092C80.3588 18.68 81.1028 18.974 82.0268 18.974ZM92.6318 20.252C91.5398 20.252 90.6158 20 89.8598 19.496C89.1158 18.992 88.6658 18.194 88.5098 17.102L89.8598 16.796C89.9558 17.372 90.1358 17.828 90.3998 18.164C90.6638 18.488 90.9878 18.722 91.3718 18.866C91.7678 18.998 92.1878 19.064 92.6318 19.064C93.2918 19.064 93.8138 18.932 94.1978 18.668C94.5818 18.404 94.7738 18.05 94.7738 17.606C94.7738 17.15 94.5878 16.832 94.2158 16.652C93.8558 16.46 93.3578 16.304 92.7218 16.184L91.9838 16.058C91.4198 15.962 90.9038 15.812 90.4358 15.608C89.9678 15.404 89.5958 15.128 89.3198 14.78C89.0438 14.432 88.9058 13.994 88.9058 13.466C88.9058 12.674 89.2118 12.056 89.8238 11.612C90.4358 11.168 91.2458 10.946 92.2538 10.946C93.2498 10.946 94.0538 11.174 94.6658 11.63C95.2898 12.074 95.6918 12.704 95.8718 13.52L94.5398 13.862C94.4318 13.226 94.1738 12.782 93.7658 12.53C93.3578 12.266 92.8538 12.134 92.2538 12.134C91.6538 12.134 91.1798 12.248 90.8318 12.476C90.4838 12.692 90.3098 13.016 90.3098 13.448C90.3098 13.868 90.4718 14.18 90.7958 14.384C91.1318 14.576 91.5758 14.72 92.1278 14.816L92.8658 14.942C93.4898 15.05 94.0478 15.2 94.5398 15.392C95.0438 15.572 95.4398 15.836 95.7278 16.184C96.0278 16.532 96.1778 16.988 96.1778 17.552C96.1778 18.416 95.8538 19.082 95.2058 19.55C94.5698 20.018 93.7118 20.252 92.6318 20.252ZM98.578 20V11.198H100V20H98.578ZM99.298 9.83C98.986 9.83 98.722 9.728 98.506 9.524C98.302 9.32 98.2 9.062 98.2 8.75C98.2 8.426 98.302 8.162 98.506 7.958C98.722 7.754 98.986 7.652 99.298 7.652C99.61 7.652 99.868 7.754 100.072 7.958C100.276 8.162 100.378 8.426 100.378 8.75C100.378 9.062 100.276 9.32 100.072 9.524C99.868 9.728 99.61 9.83 99.298 9.83ZM106.23 20C105.726 20 105.336 19.862 105.06 19.586C104.796 19.31 104.664 18.932 104.664 18.452V12.44H102.018V11.198H104.664V8.066H106.086V11.198H108.966V12.44H106.086V18.236C106.086 18.596 106.26 18.776 106.608 18.776H108.57V20H106.23ZM111.269 20V11.198H112.691V20H111.269ZM111.989 9.83C111.677 9.83 111.413 9.728 111.197 9.524C110.993 9.32 110.891 9.062 110.891 8.75C110.891 8.426 110.993 8.162 111.197 7.958C111.413 7.754 111.677 7.652 111.989 7.652C112.301 7.652 112.559 7.754 112.763 7.958C112.967 8.162 113.069 8.426 113.069 8.75C113.069 9.062 112.967 9.32 112.763 9.524C112.559 9.728 112.301 9.83 111.989 9.83ZM117.914 20L114.764 11.198H116.276L118.922 18.938H119.174L121.82 11.198H123.332L120.182 20H117.914ZM128.751 20.162C128.115 20.162 127.527 20.024 126.987 19.748C126.459 19.472 126.039 19.064 125.727 18.524C125.427 17.972 125.277 17.306 125.277 16.526V11.198H126.699V16.418C126.699 17.294 126.915 17.93 127.347 18.326C127.791 18.722 128.385 18.92 129.129 18.92C129.969 18.92 130.659 18.644 131.199 18.092C131.739 17.54 132.009 16.718 132.009 15.626V11.198H133.431V20H132.045V18.506H131.793C131.601 18.926 131.271 19.31 130.803 19.658C130.335 19.994 129.651 20.162 128.751 20.162ZM139.952 20.252C138.86 20.252 137.936 20 137.18 19.496C136.436 18.992 135.986 18.194 135.83 17.102L137.18 16.796C137.276 17.372 137.456 17.828 137.72 18.164C137.984 18.488 138.308 18.722 138.692 18.866C139.088 18.998 139.508 19.064 139.952 19.064C140.612 19.064 141.134 18.932 141.518 18.668C141.902 18.404 142.094 18.05 142.094 17.606C142.094 17.15 141.908 16.832 141.536 16.652C141.176 16.46 140.678 16.304 140.042 16.184L139.304 16.058C138.74 15.962 138.224 15.812 137.756 15.608C137.288 15.404 136.916 15.128 136.64 14.78C136.364 14.432 136.226 13.994 136.226 13.466C136.226 12.674 136.532 12.056 137.144 11.612C137.756 11.168 138.566 10.946 139.574 10.946C140.57 10.946 141.374 11.174 141.986 11.63C142.61 12.074 143.012 12.704 143.192 13.52L141.86 13.862C141.752 13.226 141.494 12.782 141.086 12.53C140.678 12.266 140.174 12.134 139.574 12.134C138.974 12.134 138.5 12.248 138.152 12.476C137.804 12.692 137.63 13.016 137.63 13.448C137.63 13.868 137.792 14.18 138.116 14.384C138.452 14.576 138.896 14.72 139.448 14.816L140.186 14.942C140.81 15.05 141.368 15.2 141.86 15.392C142.364 15.572 142.76 15.836 143.048 16.184C143.348 16.532 143.498 16.988 143.498 17.552C143.498 18.416 143.174 19.082 142.526 19.55C141.89 20.018 141.032 20.252 139.952 20.252ZM146.672 20.252C146.324 20.252 146.03 20.138 145.79 19.91C145.562 19.682 145.448 19.388 145.448 19.028C145.448 18.668 145.562 18.374 145.79 18.146C146.03 17.918 146.324 17.804 146.672 17.804C147.032 17.804 147.326 17.918 147.554 18.146C147.782 18.374 147.896 18.668 147.896 19.028C147.896 19.388 147.782 19.682 147.554 19.91C147.326 20.138 147.032 20.252 146.672 20.252ZM153.204 20L157.092 7.4H159.756L163.644 20H162.078L161.106 16.814H155.742L154.77 20H153.204ZM156.12 15.446H160.71L158.55 8.318H158.298L156.12 15.446ZM165.586 20V7.4H167.008V20H165.586ZM169.998 20V7.4H171.42V20H169.998ZM178.979 20V7.4H184.073C184.853 7.4 185.537 7.538 186.125 7.814C186.725 8.078 187.193 8.462 187.529 8.966C187.865 9.458 188.033 10.052 188.033 10.748V10.946C188.033 11.774 187.835 12.428 187.439 12.908C187.043 13.388 186.575 13.712 186.035 13.88V14.132C186.467 14.144 186.821 14.288 187.097 14.564C187.385 14.828 187.529 15.23 187.529 15.77V20H186.035V15.95C186.035 15.59 185.933 15.314 185.729 15.122C185.537 14.93 185.243 14.834 184.847 14.834H180.491V20H178.979ZM180.491 13.466H183.929C184.757 13.466 185.393 13.268 185.837 12.872C186.293 12.464 186.521 11.9 186.521 11.18V11.054C186.521 10.334 186.299 9.776 185.855 9.38C185.411 8.972 184.769 8.768 183.929 8.768H180.491V13.466ZM190.389 20V11.198H191.811V20H190.389ZM191.109 9.83C190.797 9.83 190.533 9.728 190.317 9.524C190.113 9.32 190.011 9.062 190.011 8.75C190.011 8.426 190.113 8.162 190.317 7.958C190.533 7.754 190.797 7.652 191.109 7.652C191.421 7.652 191.679 7.754 191.883 7.958C192.087 8.162 192.189 8.426 192.189 8.75C192.189 9.062 192.087 9.32 191.883 9.524C191.679 9.728 191.421 9.83 191.109 9.83ZM194.369 15.644V15.392C194.369 14.468 194.555 13.676 194.927 13.016C195.299 12.356 195.803 11.846 196.439 11.486C197.075 11.126 197.771 10.946 198.527 10.946C199.451 10.946 200.159 11.126 200.651 11.486C201.155 11.834 201.527 12.224 201.767 12.656H202.019V11.198H203.369V22.052C203.369 22.532 203.237 22.91 202.973 23.186C202.709 23.462 202.325 23.6 201.821 23.6H195.845V22.34H201.443C201.803 22.34 201.983 22.16 201.983 21.8V18.452H201.731C201.587 18.716 201.383 18.974 201.119 19.226C200.855 19.478 200.513 19.688 200.093 19.856C199.673 20.012 199.151 20.09 198.527 20.09C197.771 20.09 197.075 19.91 196.439 19.55C195.803 19.19 195.299 18.68 194.927 18.02C194.555 17.348 194.369 16.556 194.369 15.644ZM198.905 18.83C199.817 18.83 200.555 18.542 201.119 17.966C201.695 17.39 201.983 16.598 201.983 15.59V15.446C201.983 14.426 201.695 13.634 201.119 13.07C200.555 12.494 199.817 12.206 198.905 12.206C198.005 12.206 197.261 12.494 196.673 13.07C196.097 13.634 195.809 14.426 195.809 15.446V15.59C195.809 16.598 196.097 17.39 196.673 17.966C197.261 18.542 198.005 18.83 198.905 18.83ZM206.349 20V7.4H207.771V12.602H208.023C208.143 12.338 208.323 12.092 208.563 11.864C208.815 11.624 209.133 11.426 209.517 11.27C209.913 11.114 210.411 11.036 211.011 11.036C211.671 11.036 212.259 11.18 212.775 11.468C213.303 11.744 213.723 12.152 214.035 12.692C214.347 13.22 214.503 13.88 214.503 14.672V20H213.081V14.78C213.081 13.904 212.859 13.268 212.415 12.872C211.983 12.476 211.395 12.278 210.651 12.278C209.799 12.278 209.103 12.554 208.563 13.106C208.035 13.658 207.771 14.48 207.771 15.572V20H206.349ZM220.382 20C219.878 20 219.488 19.862 219.212 19.586C218.948 19.31 218.816 18.932 218.816 18.452V12.44H216.17V11.198H218.816V8.066H220.238V11.198H223.118V12.44H220.238V18.236C220.238 18.596 220.412 18.776 220.76 18.776H222.722V20H220.382ZM228.968 20.252C227.876 20.252 226.952 20 226.196 19.496C225.452 18.992 225.002 18.194 224.846 17.102L226.196 16.796C226.292 17.372 226.472 17.828 226.736 18.164C227 18.488 227.324 18.722 227.708 18.866C228.104 18.998 228.524 19.064 228.968 19.064C229.628 19.064 230.15 18.932 230.534 18.668C230.918 18.404 231.11 18.05 231.11 17.606C231.11 17.15 230.924 16.832 230.552 16.652C230.192 16.46 229.694 16.304 229.058 16.184L228.32 16.058C227.756 15.962 227.24 15.812 226.772 15.608C226.304 15.404 225.932 15.128 225.656 14.78C225.38 14.432 225.242 13.994 225.242 13.466C225.242 12.674 225.548 12.056 226.16 11.612C226.772 11.168 227.582 10.946 228.59 10.946C229.586 10.946 230.39 11.174 231.002 11.63C231.626 12.074 232.028 12.704 232.208 13.52L230.876 13.862C230.768 13.226 230.51 12.782 230.102 12.53C229.694 12.266 229.19 12.134 228.59 12.134C227.99 12.134 227.516 12.248 227.168 12.476C226.82 12.692 226.646 13.016 226.646 13.448C226.646 13.868 226.808 14.18 227.132 14.384C227.468 14.576 227.912 14.72 228.464 14.816L229.202 14.942C229.826 15.05 230.384 15.2 230.876 15.392C231.38 15.572 231.776 15.836 232.064 16.184C232.364 16.532 232.514 16.988 232.514 17.552C232.514 18.416 232.19 19.082 231.542 19.55C230.906 20.018 230.048 20.252 228.968 20.252ZM239.483 20V7.4H244.577C245.357 7.4 246.041 7.538 246.629 7.814C247.229 8.078 247.697 8.462 248.033 8.966C248.369 9.458 248.537 10.052 248.537 10.748V10.946C248.537 11.774 248.339 12.428 247.943 12.908C247.547 13.388 247.079 13.712 246.539 13.88V14.132C246.971 14.144 247.325 14.288 247.601 14.564C247.889 14.828 248.033 15.23 248.033 15.77V20H246.539V15.95C246.539 15.59 246.437 15.314 246.233 15.122C246.041 14.93 245.747 14.834 245.351 14.834H240.995V20H239.483ZM240.995 13.466H244.433C245.261 13.466 245.897 13.268 246.341 12.872C246.797 12.464 247.025 11.9 247.025 11.18V11.054C247.025 10.334 246.803 9.776 246.359 9.38C245.915 8.972 245.273 8.768 244.433 8.768H240.995V13.466ZM254.924 20.252C254.036 20.252 253.256 20.066 252.584 19.694C251.912 19.31 251.39 18.776 251.018 18.092C250.646 17.408 250.46 16.616 250.46 15.716V15.5C250.46 14.588 250.646 13.79 251.018 13.106C251.39 12.422 251.906 11.894 252.566 11.522C253.226 11.138 253.982 10.946 254.834 10.946C255.662 10.946 256.394 11.126 257.03 11.486C257.666 11.834 258.164 12.338 258.524 12.998C258.884 13.658 259.064 14.432 259.064 15.32V15.968H251.882C251.918 16.916 252.224 17.66 252.8 18.2C253.376 18.728 254.096 18.992 254.96 18.992C255.716 18.992 256.298 18.818 256.706 18.47C257.114 18.122 257.426 17.708 257.642 17.228L258.866 17.822C258.686 18.194 258.434 18.566 258.11 18.938C257.798 19.31 257.384 19.622 256.868 19.874C256.364 20.126 255.716 20.252 254.924 20.252ZM251.9 14.798H257.624C257.576 13.982 257.294 13.346 256.778 12.89C256.274 12.434 255.626 12.206 254.834 12.206C254.03 12.206 253.37 12.434 252.854 12.89C252.338 13.346 252.02 13.982 251.9 14.798ZM265.091 20.252C263.999 20.252 263.075 20 262.319 19.496C261.575 18.992 261.125 18.194 260.969 17.102L262.319 16.796C262.415 17.372 262.595 17.828 262.859 18.164C263.123 18.488 263.447 18.722 263.831 18.866C264.227 18.998 264.647 19.064 265.091 19.064C265.751 19.064 266.273 18.932 266.657 18.668C267.041 18.404 267.233 18.05 267.233 17.606C267.233 17.15 267.047 16.832 266.675 16.652C266.315 16.46 265.817 16.304 265.181 16.184L264.443 16.058C263.879 15.962 263.363 15.812 262.895 15.608C262.427 15.404 262.055 15.128 261.779 14.78C261.503 14.432 261.365 13.994 261.365 13.466C261.365 12.674 261.671 12.056 262.283 11.612C262.895 11.168 263.705 10.946 264.713 10.946C265.709 10.946 266.513 11.174 267.125 11.63C267.749 12.074 268.151 12.704 268.331 13.52L266.999 13.862C266.891 13.226 266.633 12.782 266.225 12.53C265.817 12.266 265.313 12.134 264.713 12.134C264.113 12.134 263.639 12.248 263.291 12.476C262.943 12.692 262.769 13.016 262.769 13.448C262.769 13.868 262.931 14.18 263.255 14.384C263.591 14.576 264.035 14.72 264.587 14.816L265.325 14.942C265.949 15.05 266.507 15.2 266.999 15.392C267.503 15.572 267.899 15.836 268.187 16.184C268.487 16.532 268.637 16.988 268.637 17.552C268.637 18.416 268.313 19.082 267.665 19.55C267.029 20.018 266.171 20.252 265.091 20.252ZM275.069 20.252C274.181 20.252 273.401 20.066 272.729 19.694C272.057 19.31 271.535 18.776 271.163 18.092C270.791 17.408 270.605 16.616 270.605 15.716V15.5C270.605 14.588 270.791 13.79 271.163 13.106C271.535 12.422 272.051 11.894 272.711 11.522C273.371 11.138 274.127 10.946 274.979 10.946C275.807 10.946 276.539 11.126 277.175 11.486C277.811 11.834 278.309 12.338 278.669 12.998C279.029 13.658 279.209 14.432 279.209 15.32V15.968H272.027C272.063 16.916 272.369 17.66 272.945 18.2C273.521 18.728 274.241 18.992 275.105 18.992C275.861 18.992 276.443 18.818 276.851 18.47C277.259 18.122 277.571 17.708 277.787 17.228L279.011 17.822C278.831 18.194 278.579 18.566 278.255 18.938C277.943 19.31 277.529 19.622 277.013 19.874C276.509 20.126 275.861 20.252 275.069 20.252ZM272.045 14.798H277.769C277.721 13.982 277.439 13.346 276.923 12.89C276.419 12.434 275.771 12.206 274.979 12.206C274.175 12.206 273.515 12.434 272.999 12.89C272.483 13.346 272.165 13.982 272.045 14.798ZM281.689 20V11.198H283.075V12.278H283.327C283.483 11.894 283.723 11.612 284.047 11.432C284.371 11.252 284.797 11.162 285.325 11.162H286.369V12.458H285.235C284.599 12.458 284.083 12.638 283.687 12.998C283.303 13.346 283.111 13.892 283.111 14.636V20H281.689ZM290.706 20L287.556 11.198H289.068L291.714 18.938H291.966L294.612 11.198H296.124L292.974 20H290.706ZM301.858 20.252C300.97 20.252 300.19 20.066 299.518 19.694C298.846 19.31 298.324 18.776 297.952 18.092C297.58 17.408 297.394 16.616 297.394 15.716V15.5C297.394 14.588 297.58 13.79 297.952 13.106C298.324 12.422 298.84 11.894 299.5 11.522C300.16 11.138 300.916 10.946 301.768 10.946C302.596 10.946 303.328 11.126 303.964 11.486C304.6 11.834 305.098 12.338 305.458 12.998C305.818 13.658 305.998 14.432 305.998 15.32V15.968H298.816C298.852 16.916 299.158 17.66 299.734 18.2C300.31 18.728 301.03 18.992 301.894 18.992C302.65 18.992 303.232 18.818 303.64 18.47C304.048 18.122 304.36 17.708 304.576 17.228L305.8 17.822C305.62 18.194 305.368 18.566 305.044 18.938C304.732 19.31 304.318 19.622 303.802 19.874C303.298 20.126 302.65 20.252 301.858 20.252ZM298.834 14.798H304.558C304.51 13.982 304.228 13.346 303.712 12.89C303.208 12.434 302.56 12.206 301.768 12.206C300.964 12.206 300.304 12.434 299.788 12.89C299.272 13.346 298.954 13.982 298.834 14.798ZM312.204 20.252C311.448 20.252 310.752 20.072 310.116 19.712C309.48 19.352 308.976 18.83 308.604 18.146C308.232 17.462 308.046 16.652 308.046 15.716V15.482C308.046 14.546 308.232 13.742 308.604 13.07C308.976 12.386 309.474 11.864 310.098 11.504C310.734 11.132 311.436 10.946 312.204 10.946C312.816 10.946 313.332 11.03 313.752 11.198C314.184 11.354 314.532 11.558 314.796 11.81C315.06 12.05 315.264 12.308 315.408 12.584H315.66V7.4H317.082V20H315.696V18.542H315.444C315.204 18.986 314.832 19.382 314.328 19.73C313.824 20.078 313.116 20.252 312.204 20.252ZM312.582 18.992C313.494 18.992 314.232 18.704 314.796 18.128C315.372 17.54 315.66 16.724 315.66 15.68V15.518C315.66 14.474 315.372 13.664 314.796 13.088C314.232 12.5 313.494 12.206 312.582 12.206C311.682 12.206 310.938 12.5 310.35 13.088C309.774 13.664 309.486 14.474 309.486 15.518V15.68C309.486 16.724 309.774 17.54 310.35 18.128C310.938 18.704 311.682 18.992 312.582 18.992ZM320.836 20.252C320.488 20.252 320.194 20.138 319.954 19.91C319.726 19.682 319.612 19.388 319.612 19.028C319.612 18.668 319.726 18.374 319.954 18.146C320.194 17.918 320.488 17.804 320.836 17.804C321.196 17.804 321.49 17.918 321.718 18.146C321.946 18.374 322.06 18.668 322.06 19.028C322.06 19.388 321.946 19.682 321.718 19.91C321.49 20.138 321.196 20.252 320.836 20.252Z" fill="white"/>
<path d="M365.44 20V7.4H370.264C371.02 7.4 371.692 7.55 372.28 7.85C372.88 8.138 373.354 8.552 373.702 9.092C374.05 9.632 374.224 10.286 374.224 11.054V11.288C374.224 12.044 374.044 12.698 373.684 13.25C373.336 13.79 372.862 14.204 372.262 14.492C371.662 14.78 370.996 14.924 370.264 14.924H366.952V20H365.44ZM366.952 13.556H370.102C370.906 13.556 371.542 13.358 372.01 12.962C372.478 12.554 372.712 11.984 372.712 11.252V11.072C372.712 10.34 372.478 9.776 372.01 9.38C371.554 8.972 370.918 8.768 370.102 8.768H366.952V13.556ZM376.305 20V11.198H377.691V12.278H377.943C378.099 11.894 378.339 11.612 378.663 11.432C378.987 11.252 379.413 11.162 379.941 11.162H380.985V12.458H379.851C379.215 12.458 378.699 12.638 378.303 12.998C377.919 13.346 377.727 13.892 377.727 14.636V20H376.305ZM383.09 20V11.198H384.512V20H383.09ZM383.81 9.83C383.498 9.83 383.234 9.728 383.018 9.524C382.814 9.32 382.712 9.062 382.712 8.75C382.712 8.426 382.814 8.162 383.018 7.958C383.234 7.754 383.498 7.652 383.81 7.652C384.122 7.652 384.38 7.754 384.584 7.958C384.788 8.162 384.89 8.426 384.89 8.75C384.89 9.062 384.788 9.32 384.584 9.524C384.38 9.728 384.122 9.83 383.81 9.83ZM389.734 20L386.584 11.198H388.096L390.742 18.938H390.994L393.64 11.198H395.152L392.002 20H389.734ZM399.624 20.252C399.012 20.252 398.454 20.144 397.95 19.928C397.446 19.712 397.05 19.4 396.762 18.992C396.474 18.584 396.33 18.086 396.33 17.498C396.33 16.898 396.474 16.406 396.762 16.022C397.05 15.626 397.446 15.332 397.95 15.14C398.454 14.936 399.018 14.834 399.642 14.834H402.612V14.186C402.612 13.562 402.426 13.07 402.054 12.71C401.694 12.35 401.154 12.17 400.434 12.17C399.726 12.17 399.174 12.344 398.778 12.692C398.382 13.028 398.112 13.484 397.968 14.06L396.636 13.628C396.78 13.136 397.008 12.692 397.32 12.296C397.632 11.888 398.046 11.564 398.562 11.324C399.09 11.072 399.72 10.946 400.452 10.946C401.58 10.946 402.456 11.24 403.08 11.828C403.704 12.404 404.016 13.22 404.016 14.276V18.254C404.016 18.614 404.184 18.794 404.52 18.794H405.33V20H404.088C403.692 20 403.374 19.892 403.134 19.676C402.894 19.448 402.774 19.148 402.774 18.776V18.686H402.558C402.426 18.914 402.246 19.154 402.018 19.406C401.802 19.646 401.502 19.844 401.118 20C400.734 20.168 400.236 20.252 399.624 20.252ZM399.786 19.028C400.626 19.028 401.304 18.782 401.82 18.29C402.348 17.786 402.612 17.084 402.612 16.184V15.986H399.696C399.132 15.986 398.664 16.112 398.292 16.364C397.932 16.604 397.752 16.97 397.752 17.462C397.752 17.954 397.938 18.338 398.31 18.614C398.694 18.89 399.186 19.028 399.786 19.028ZM411.081 20.252C410.229 20.252 409.461 20.072 408.777 19.712C408.105 19.34 407.571 18.812 407.175 18.128C406.791 17.444 406.599 16.634 406.599 15.698V15.5C406.599 14.552 406.791 13.742 407.175 13.07C407.571 12.386 408.105 11.864 408.777 11.504C409.461 11.132 410.229 10.946 411.081 10.946C411.921 10.946 412.635 11.102 413.223 11.414C413.823 11.726 414.291 12.14 414.627 12.656C414.975 13.172 415.197 13.724 415.293 14.312L413.907 14.6C413.847 14.168 413.703 13.772 413.475 13.412C413.259 13.052 412.953 12.764 412.557 12.548C412.161 12.332 411.675 12.224 411.099 12.224C410.511 12.224 409.983 12.356 409.515 12.62C409.059 12.884 408.693 13.262 408.417 13.754C408.153 14.246 408.021 14.834 408.021 15.518V15.68C408.021 16.364 408.153 16.952 408.417 17.444C408.693 17.936 409.059 18.314 409.515 18.578C409.983 18.842 410.511 18.974 411.099 18.974C411.975 18.974 412.641 18.746 413.097 18.29C413.565 17.834 413.853 17.27 413.961 16.598L415.365 16.904C415.233 17.48 414.993 18.026 414.645 18.542C414.297 19.058 413.823 19.472 413.223 19.784C412.635 20.096 411.921 20.252 411.081 20.252ZM418.851 23.6V22.34H423.891C424.239 22.34 424.413 22.16 424.413 21.8V18.596H424.161C424.041 18.848 423.855 19.1 423.603 19.352C423.363 19.592 423.045 19.79 422.649 19.946C422.253 20.09 421.755 20.162 421.155 20.162C420.519 20.162 419.931 20.024 419.391 19.748C418.863 19.472 418.443 19.064 418.131 18.524C417.831 17.984 417.681 17.324 417.681 16.544V11.198H419.103V16.436C419.103 17.3 419.319 17.93 419.751 18.326C420.195 18.722 420.789 18.92 421.533 18.92C422.373 18.92 423.063 18.644 423.603 18.092C424.143 17.54 424.413 16.718 424.413 15.626V11.198H425.835V22.052C425.835 22.532 425.697 22.91 425.421 23.186C425.157 23.462 424.767 23.6 424.251 23.6H418.851ZM433.379 20V7.4H438.203C438.959 7.4 439.631 7.55 440.219 7.85C440.819 8.138 441.293 8.552 441.641 9.092C441.989 9.632 442.163 10.286 442.163 11.054V11.288C442.163 12.044 441.983 12.698 441.623 13.25C441.275 13.79 440.801 14.204 440.201 14.492C439.601 14.78 438.935 14.924 438.203 14.924H434.891V20H433.379ZM434.891 13.556H438.041C438.845 13.556 439.481 13.358 439.949 12.962C440.417 12.554 440.651 11.984 440.651 11.252V11.072C440.651 10.34 440.417 9.776 439.949 9.38C439.493 8.972 438.857 8.768 438.041 8.768H434.891V13.556ZM448.031 20.252C447.143 20.252 446.357 20.066 445.673 19.694C445.001 19.322 444.473 18.8 444.089 18.128C443.717 17.444 443.531 16.64 443.531 15.716V15.482C443.531 14.57 443.717 13.772 444.089 13.088C444.473 12.404 445.001 11.876 445.673 11.504C446.357 11.132 447.143 10.946 448.031 10.946C448.919 10.946 449.699 11.132 450.371 11.504C451.055 11.876 451.583 12.404 451.955 13.088C452.339 13.772 452.531 14.57 452.531 15.482V15.716C452.531 16.64 452.339 17.444 451.955 18.128C451.583 18.8 451.055 19.322 450.371 19.694C449.699 20.066 448.919 20.252 448.031 20.252ZM448.031 18.974C448.967 18.974 449.711 18.68 450.263 18.092C450.827 17.492 451.109 16.688 451.109 15.68V15.518C451.109 14.51 450.827 13.712 450.263 13.124C449.711 12.524 448.967 12.224 448.031 12.224C447.107 12.224 446.363 12.524 445.799 13.124C445.235 13.712 444.953 14.51 444.953 15.518V15.68C444.953 16.688 445.235 17.492 445.799 18.092C446.363 18.68 447.107 18.974 448.031 18.974ZM455.09 20V7.4H456.512V20H455.09ZM459.502 20V11.198H460.924V20H459.502ZM460.222 9.83C459.91 9.83 459.646 9.728 459.43 9.524C459.226 9.32 459.124 9.062 459.124 8.75C459.124 8.426 459.226 8.162 459.43 7.958C459.646 7.754 459.91 7.652 460.222 7.652C460.534 7.652 460.792 7.754 460.996 7.958C461.2 8.162 461.302 8.426 461.302 8.75C461.302 9.062 461.2 9.32 460.996 9.524C460.792 9.728 460.534 9.83 460.222 9.83ZM467.964 20.252C467.112 20.252 466.344 20.072 465.66 19.712C464.988 19.34 464.454 18.812 464.058 18.128C463.674 17.444 463.482 16.634 463.482 15.698V15.5C463.482 14.552 463.674 13.742 464.058 13.07C464.454 12.386 464.988 11.864 465.66 11.504C466.344 11.132 467.112 10.946 467.964 10.946C468.804 10.946 469.518 11.102 470.106 11.414C470.706 11.726 471.174 12.14 471.51 12.656C471.858 13.172 472.08 13.724 472.176 14.312L470.79 14.6C470.73 14.168 470.586 13.772 470.358 13.412C470.142 13.052 469.836 12.764 469.44 12.548C469.044 12.332 468.558 12.224 467.982 12.224C467.394 12.224 466.866 12.356 466.398 12.62C465.942 12.884 465.576 13.262 465.3 13.754C465.036 14.246 464.904 14.834 464.904 15.518V15.68C464.904 16.364 465.036 16.952 465.3 17.444C465.576 17.936 465.942 18.314 466.398 18.578C466.866 18.842 467.394 18.974 467.982 18.974C468.858 18.974 469.524 18.746 469.98 18.29C470.448 17.834 470.736 17.27 470.844 16.598L472.248 16.904C472.116 17.48 471.876 18.026 471.528 18.542C471.18 19.058 470.706 19.472 470.106 19.784C469.518 20.096 468.804 20.252 467.964 20.252ZM475.734 23.6V22.34H480.774C481.122 22.34 481.296 22.16 481.296 21.8V18.596H481.044C480.924 18.848 480.738 19.1 480.486 19.352C480.246 19.592 479.928 19.79 479.532 19.946C479.136 20.09 478.638 20.162 478.038 20.162C477.402 20.162 476.814 20.024 476.274 19.748C475.746 19.472 475.326 19.064 475.014 18.524C474.714 17.984 474.564 17.324 474.564 16.544V11.198H475.986V16.436C475.986 17.3 476.202 17.93 476.634 18.326C477.078 18.722 477.672 18.92 478.416 18.92C479.256 18.92 479.946 18.644 480.486 18.092C481.026 17.54 481.296 16.718 481.296 15.626V11.198H482.718V22.052C482.718 22.532 482.58 22.91 482.304 23.186C482.04 23.462 481.65 23.6 481.134 23.6H475.734Z" fill="white"/>
<path d="M364 22.25H484.194V23.15H364V22.25Z" fill="white"/>
</svg>
